# xmcd
#
# Track frame offsets:
#	182
#	14200
#	26307
#	40397
#	54152
#	70215
#	85047
#	101130
#	115287
#	129312
#	142957
#	157305
#	174777
#	188495
#	204115
#	218085
#	230515
#	245185
#	260260
#	274092
#	286292
#	296792
#
# Disc length: 4147 seconds
#
# Revision: 1
# Processed by: cddbd v1.4b41PL2 Copyright (c) Steve Scherf et al.
# Submitted via: audiograbber 1.80
#
DISCID=3f103116
DTITLE=John Lee Hooker - Boogie Awhile
DYEAR=1900
DGENRE=
TTITLE0=Morning Blues
TTITLE1=Boogie Awhile
TTITLE2=Tuesday Evening
TTITLE3=Miss Pearl Boogie
TTITLE4=Good Business
TTITLE5=Mercy Blues
TTITLE6=Boogie Woogie
TTITLE7=I Love to Boogie
TTITLE8=Highway Blues
TTITLE9=Miss Rosie Mae (alt take)
TTITLE10=Wayne County Ramblin' Blues
TTITLE11=Leavin' Chicago
TTITLE12=Shake Your Boogie
TTITLE13=Poor Slim (take 2)
TTITLE14=Must I Wait Till Your Man is Gone
TTITLE15=Cotton Pickin' Boogie
TTITLE16=Do the Boogie
TTITLE17=Christmas Time Blues
TTITLE18=Boogie Rambler
TTITLE19=No More Doggin'
TTITLE20=I'm a Boogie Man
TTITLE21=I Came to See You Baby
EXTD=Krazy Kat KK CD 05
EXTT0=
EXTT1=
EXTT2=
EXTT3=
EXTT4=
EXTT5=
EXTT6=
EXTT7=
EXTT8=
EXTT9=
EXTT10=
EXTT11=
EXTT12=
EXTT13=
EXTT14=
EXTT15=
EXTT16=
EXTT17=
EXTT18=
EXTT19=
EXTT20=
EXTT21=
PLAYORDER=
